ISO-10303-21;
HEADER;
/* Generated by software containing ST-Developer
 * from STEP Tools, Inc. (www.steptools.com) 
 */
/* OPTION: using custom renumber hook */

FILE_DESCRIPTION(
/* description */ ('STEP AP242 Edition 2',
'CAx-IF Rec.Pracs.---Representation and Presentation of Product Manufa
cturing Information (PMI)---4.0---2014-10-13',
'CAx-IF Rec.Pracs.---3D Tessellated Geometry---0.4---2014-09-14','2;1',
'CAx-IF Rec.Pracs.---User Defined Attributes---1.5---2016-08-15'),
/* implementation_level */ '2;1');

FILE_NAME(
/* name */ 'Utensil Holder Base - Utensil Holder Base',
/* time_stamp */ '2026-09-28T19:13:43Z',
/* author */ (''),
/* organization */ (''),
/* preprocessor_version */ 'ST-DEVELOPER v20',
/* originating_system */ 'ONSHAPE BY PTC INC, 1.221',
/* authorisation */ '  ');

FILE_SCHEMA (('AP242_MANAGED_MODEL_BASED_3D_ENGINEERING_MIM_LF { 1 0 10303 442 3 1 4 }'));
ENDSEC;

DATA;
#10=SHAPE_REPRESENTATION_RELATIONSHIP('','',#511,#11);
#11=ADVANCED_BREP_SHAPE_REPRESENTATION('',(#509),#844);
#12=PLANE('',#528);
#13=PLANE('',#532);
#14=PLANE('',#533);
#15=PLANE('',#534);
#16=PLANE('',#535);
#17=PLANE('',#537);
#18=PLANE('',#538);
#19=PLANE('',#540);
#20=PLANE('',#541);
#21=PLANE('',#543);
#22=PLANE('',#545);
#23=PLANE('',#547);
#24=PLANE('',#548);
#25=PLANE('',#550);
#26=PLANE('',#551);
#27=PLANE('',#553);
#28=LINE('',#706,#76);
#29=LINE('',#710,#77);
#30=LINE('',#712,#78);
#31=LINE('',#717,#79);
#32=LINE('',#724,#80);
#33=LINE('',#728,#81);
#34=LINE('',#733,#82);
#35=LINE('',#737,#83);
#36=LINE('',#739,#84);
#37=LINE('',#744,#85);
#38=LINE('',#748,#86);
#39=LINE('',#751,#87);
#40=LINE('',#753,#88);
#41=LINE('',#755,#89);
#42=LINE('',#756,#90);
#43=LINE('',#758,#91);
#44=LINE('',#760,#92);
#45=LINE('',#761,#93);
#46=LINE('',#762,#94);
#47=LINE('',#764,#95);
#48=LINE('',#766,#96);
#49=LINE('',#767,#97);
#50=LINE('',#769,#98);
#51=LINE('',#771,#99);
#52=LINE('',#772,#100);
#53=LINE('',#774,#101);
#54=LINE('',#780,#102);
#55=LINE('',#782,#103);
#56=LINE('',#783,#104);
#57=LINE('',#785,#105);
#58=LINE('',#787,#106);
#59=LINE('',#788,#107);
#60=LINE('',#790,#108);
#61=LINE('',#792,#109);
#62=LINE('',#793,#110);
#63=LINE('',#794,#111);
#64=LINE('',#796,#112);
#65=LINE('',#798,#113);
#66=LINE('',#799,#114);
#67=LINE('',#801,#115);
#68=LINE('',#807,#116);
#69=LINE('',#809,#117);
#70=LINE('',#814,#118);
#71=LINE('',#815,#119);
#72=LINE('',#825,#120);
#73=LINE('',#827,#121);
#74=LINE('',#832,#122);
#75=LINE('',#833,#123);
#76=VECTOR('',#565,1.);
#77=VECTOR('',#568,1.);
#78=VECTOR('',#571,1.);
#79=VECTOR('',#574,1.);
#80=VECTOR('',#581,1.);
#81=VECTOR('',#584,1.);
#82=VECTOR('',#589,1.);
#83=VECTOR('',#592,1.);
#84=VECTOR('',#595,1.);
#85=VECTOR('',#598,1.);
#86=VECTOR('',#603,1.);
#87=VECTOR('',#604,1.);
#88=VECTOR('',#605,1.);
#89=VECTOR('',#606,1.);
#90=VECTOR('',#607,1.);
#91=VECTOR('',#608,1.);
#92=VECTOR('',#609,1.);
#93=VECTOR('',#610,1.);
#94=VECTOR('',#611,1.);
#95=VECTOR('',#612,1.);
#96=VECTOR('',#613,1.);
#97=VECTOR('',#614,1.);
#98=VECTOR('',#615,1.);
#99=VECTOR('',#616,1.);
#100=VECTOR('',#617,1.);
#101=VECTOR('',#620,1.);
#102=VECTOR('',#627,1.);
#103=VECTOR('',#628,1.);
#104=VECTOR('',#629,1.);
#105=VECTOR('',#630,1.);
#106=VECTOR('',#631,1.);
#107=VECTOR('',#632,1.);
#108=VECTOR('',#633,1.);
#109=VECTOR('',#634,1.);
#110=VECTOR('',#635,1.);
#111=VECTOR('',#636,1.);
#112=VECTOR('',#637,1.);
#113=VECTOR('',#638,1.);
#114=VECTOR('',#639,1.);
#115=VECTOR('',#640,1.);
#116=VECTOR('',#649,1.);
#117=VECTOR('',#652,1.);
#118=VECTOR('',#659,1.);
#119=VECTOR('',#660,1.);
#120=VECTOR('',#673,1.);
#121=VECTOR('',#676,1.);
#122=VECTOR('',#683,1.);
#123=VECTOR('',#684,1.);
#124=ORIENTED_EDGE('',*,*,#260,.F.);
#125=ORIENTED_EDGE('',*,*,#261,.F.);
#126=ORIENTED_EDGE('',*,*,#262,.T.);
#127=ORIENTED_EDGE('',*,*,#263,.T.);
#128=ORIENTED_EDGE('',*,*,#264,.F.);
#129=ORIENTED_EDGE('',*,*,#265,.F.);
#130=ORIENTED_EDGE('',*,*,#266,.T.);
#131=ORIENTED_EDGE('',*,*,#267,.F.);
#132=ORIENTED_EDGE('',*,*,#268,.T.);
#133=ORIENTED_EDGE('',*,*,#269,.F.);
#134=ORIENTED_EDGE('',*,*,#270,.T.);
#135=ORIENTED_EDGE('',*,*,#271,.T.);
#136=ORIENTED_EDGE('',*,*,#272,.T.);
#137=ORIENTED_EDGE('',*,*,#273,.F.);
#138=ORIENTED_EDGE('',*,*,#274,.F.);
#139=ORIENTED_EDGE('',*,*,#275,.T.);
#140=ORIENTED_EDGE('',*,*,#276,.F.);
#141=ORIENTED_EDGE('',*,*,#277,.F.);
#142=ORIENTED_EDGE('',*,*,#278,.T.);
#143=ORIENTED_EDGE('',*,*,#279,.F.);
#144=ORIENTED_EDGE('',*,*,#280,.F.);
#145=ORIENTED_EDGE('',*,*,#281,.T.);
#146=ORIENTED_EDGE('',*,*,#282,.T.);
#147=ORIENTED_EDGE('',*,*,#283,.T.);
#148=ORIENTED_EDGE('',*,*,#271,.F.);
#149=ORIENTED_EDGE('',*,*,#284,.T.);
#150=ORIENTED_EDGE('',*,*,#285,.T.);
#151=ORIENTED_EDGE('',*,*,#286,.T.);
#152=ORIENTED_EDGE('',*,*,#275,.F.);
#153=ORIENTED_EDGE('',*,*,#287,.F.);
#154=ORIENTED_EDGE('',*,*,#261,.T.);
#155=ORIENTED_EDGE('',*,*,#288,.T.);
#156=ORIENTED_EDGE('',*,*,#289,.T.);
#157=ORIENTED_EDGE('',*,*,#290,.T.);
#158=ORIENTED_EDGE('',*,*,#276,.T.);
#159=ORIENTED_EDGE('',*,*,#291,.T.);
#160=ORIENTED_EDGE('',*,*,#292,.T.);
#161=ORIENTED_EDGE('',*,*,#293,.T.);
#162=ORIENTED_EDGE('',*,*,#264,.T.);
#163=ORIENTED_EDGE('',*,*,#294,.T.);
#164=ORIENTED_EDGE('',*,*,#295,.F.);
#165=ORIENTED_EDGE('',*,*,#296,.T.);
#166=ORIENTED_EDGE('',*,*,#280,.T.);
#167=ORIENTED_EDGE('',*,*,#297,.T.);
#168=ORIENTED_EDGE('',*,*,#298,.F.);
#169=ORIENTED_EDGE('',*,*,#295,.T.);
#170=ORIENTED_EDGE('',*,*,#299,.F.);
#171=ORIENTED_EDGE('',*,*,#266,.F.);
#172=ORIENTED_EDGE('',*,*,#300,.F.);
#173=ORIENTED_EDGE('',*,*,#301,.F.);
#174=ORIENTED_EDGE('',*,*,#302,.F.);
#175=ORIENTED_EDGE('',*,*,#278,.F.);
#176=ORIENTED_EDGE('',*,*,#303,.F.);
#177=ORIENTED_EDGE('',*,*,#304,.F.);
#178=ORIENTED_EDGE('',*,*,#305,.F.);
#179=ORIENTED_EDGE('',*,*,#263,.F.);
#180=ORIENTED_EDGE('',*,*,#306,.T.);
#181=ORIENTED_EDGE('',*,*,#273,.T.);
#182=ORIENTED_EDGE('',*,*,#307,.F.);
#183=ORIENTED_EDGE('',*,*,#308,.F.);
#184=ORIENTED_EDGE('',*,*,#309,.F.);
#185=ORIENTED_EDGE('',*,*,#269,.T.);
#186=ORIENTED_EDGE('',*,*,#310,.F.);
#187=ORIENTED_EDGE('',*,*,#311,.F.);
#188=ORIENTED_EDGE('',*,*,#262,.F.);
#189=ORIENTED_EDGE('',*,*,#287,.T.);
#190=ORIENTED_EDGE('',*,*,#274,.T.);
#191=ORIENTED_EDGE('',*,*,#306,.F.);
#192=ORIENTED_EDGE('',*,*,#267,.T.);
#193=ORIENTED_EDGE('',*,*,#299,.T.);
#194=ORIENTED_EDGE('',*,*,#297,.F.);
#195=ORIENTED_EDGE('',*,*,#294,.F.);
#196=ORIENTED_EDGE('',*,*,#312,.T.);
#197=ORIENTED_EDGE('',*,*,#313,.T.);
#198=ORIENTED_EDGE('',*,*,#300,.T.);
#199=ORIENTED_EDGE('',*,*,#265,.T.);
#200=ORIENTED_EDGE('',*,*,#293,.F.);
#201=ORIENTED_EDGE('',*,*,#314,.T.);
#202=ORIENTED_EDGE('',*,*,#301,.T.);
#203=ORIENTED_EDGE('',*,*,#313,.F.);
#204=ORIENTED_EDGE('',*,*,#292,.F.);
#205=ORIENTED_EDGE('',*,*,#315,.T.);
#206=ORIENTED_EDGE('',*,*,#291,.F.);
#207=ORIENTED_EDGE('',*,*,#279,.T.);
#208=ORIENTED_EDGE('',*,*,#302,.T.);
#209=ORIENTED_EDGE('',*,*,#314,.F.);
#210=ORIENTED_EDGE('',*,*,#316,.T.);
#211=ORIENTED_EDGE('',*,*,#304,.T.);
#212=ORIENTED_EDGE('',*,*,#317,.F.);
#213=ORIENTED_EDGE('',*,*,#289,.F.);
#214=ORIENTED_EDGE('',*,*,#318,.T.);
#215=ORIENTED_EDGE('',*,*,#288,.F.);
#216=ORIENTED_EDGE('',*,*,#260,.T.);
#217=ORIENTED_EDGE('',*,*,#305,.T.);
#218=ORIENTED_EDGE('',*,*,#316,.F.);
#219=ORIENTED_EDGE('',*,*,#319,.T.);
#220=ORIENTED_EDGE('',*,*,#317,.T.);
#221=ORIENTED_EDGE('',*,*,#303,.T.);
#222=ORIENTED_EDGE('',*,*,#277,.T.);
#223=ORIENTED_EDGE('',*,*,#290,.F.);
#224=ORIENTED_EDGE('',*,*,#320,.F.);
#225=ORIENTED_EDGE('',*,*,#321,.T.);
#226=ORIENTED_EDGE('',*,*,#307,.T.);
#227=ORIENTED_EDGE('',*,*,#272,.F.);
#228=ORIENTED_EDGE('',*,*,#286,.F.);
#229=ORIENTED_EDGE('',*,*,#322,.T.);
#230=ORIENTED_EDGE('',*,*,#308,.T.);
#231=ORIENTED_EDGE('',*,*,#321,.F.);
#232=ORIENTED_EDGE('',*,*,#285,.F.);
#233=ORIENTED_EDGE('',*,*,#323,.F.);
#234=ORIENTED_EDGE('',*,*,#270,.F.);
#235=ORIENTED_EDGE('',*,*,#309,.T.);
#236=ORIENTED_EDGE('',*,*,#322,.F.);
#237=ORIENTED_EDGE('',*,*,#284,.F.);
#238=ORIENTED_EDGE('',*,*,#324,.T.);
#239=ORIENTED_EDGE('',*,*,#311,.T.);
#240=ORIENTED_EDGE('',*,*,#325,.F.);
#241=ORIENTED_EDGE('',*,*,#282,.F.);
#242=ORIENTED_EDGE('',*,*,#326,.F.);
#243=ORIENTED_EDGE('',*,*,#296,.F.);
#244=ORIENTED_EDGE('',*,*,#298,.T.);
#245=ORIENTED_EDGE('',*,*,#324,.F.);
#246=ORIENTED_EDGE('',*,*,#281,.F.);
#247=ORIENTED_EDGE('',*,*,#327,.F.);
#248=ORIENTED_EDGE('',*,*,#325,.T.);
#249=ORIENTED_EDGE('',*,*,#310,.T.);
#250=ORIENTED_EDGE('',*,*,#268,.F.);
#251=ORIENTED_EDGE('',*,*,#283,.F.);
#252=ORIENTED_EDGE('',*,*,#327,.T.);
#253=ORIENTED_EDGE('',*,*,#326,.T.);
#254=ORIENTED_EDGE('',*,*,#323,.T.);
#255=ORIENTED_EDGE('',*,*,#320,.T.);
#256=ORIENTED_EDGE('',*,*,#319,.F.);
#257=ORIENTED_EDGE('',*,*,#318,.F.);
#258=ORIENTED_EDGE('',*,*,#315,.F.);
#259=ORIENTED_EDGE('',*,*,#312,.F.);
#260=EDGE_CURVE('',#328,#329,#376,.F.);
#261=EDGE_CURVE('',#330,#328,#28,.T.);
#262=EDGE_CURVE('',#330,#331,#377,.T.);
#263=EDGE_CURVE('',#331,#329,#29,.T.);
#264=EDGE_CURVE('',#332,#333,#30,.T.);
#265=EDGE_CURVE('',#334,#332,#378,.F.);
#266=EDGE_CURVE('',#334,#335,#31,.T.);
#267=EDGE_CURVE('',#333,#335,#379,.T.);
#268=EDGE_CURVE('',#336,#337,#380,.T.);
#269=EDGE_CURVE('',#338,#337,#32,.T.);
#270=EDGE_CURVE('',#338,#339,#381,.T.);
#271=EDGE_CURVE('',#339,#336,#33,.T.);
#272=EDGE_CURVE('',#340,#341,#382,.T.);
#273=EDGE_CURVE('',#342,#341,#34,.T.);
#274=EDGE_CURVE('',#343,#342,#383,.T.);
#275=EDGE_CURVE('',#343,#340,#35,.T.);
#276=EDGE_CURVE('',#344,#345,#36,.T.);
#277=EDGE_CURVE('',#346,#344,#384,.F.);
#278=EDGE_CURVE('',#346,#347,#37,.T.);
#279=EDGE_CURVE('',#345,#347,#385,.F.);
#280=EDGE_CURVE('',#348,#349,#38,.T.);
#281=EDGE_CURVE('',#348,#350,#39,.T.);
#282=EDGE_CURVE('',#350,#351,#40,.T.);
#283=EDGE_CURVE('',#351,#336,#41,.T.);
#284=EDGE_CURVE('',#339,#352,#42,.T.);
#285=EDGE_CURVE('',#352,#353,#43,.T.);
#286=EDGE_CURVE('',#353,#340,#44,.T.);
#287=EDGE_CURVE('',#330,#343,#45,.T.);
#288=EDGE_CURVE('',#328,#354,#46,.T.);
#289=EDGE_CURVE('',#354,#355,#47,.T.);
#290=EDGE_CURVE('',#355,#344,#48,.T.);
#291=EDGE_CURVE('',#345,#356,#49,.T.);
#292=EDGE_CURVE('',#356,#357,#50,.T.);
#293=EDGE_CURVE('',#357,#332,#51,.T.);
#294=EDGE_CURVE('',#333,#349,#52,.T.);
#295=EDGE_CURVE('',#358,#359,#53,.T.);
#296=EDGE_CURVE('',#358,#348,#386,.T.);
#297=EDGE_CURVE('',#349,#359,#387,.T.);
#298=EDGE_CURVE('',#358,#360,#54,.T.);
#299=EDGE_CURVE('',#335,#359,#55,.T.);
#300=EDGE_CURVE('',#361,#334,#56,.T.);
#301=EDGE_CURVE('',#362,#361,#57,.T.);
#302=EDGE_CURVE('',#347,#362,#58,.T.);
#303=EDGE_CURVE('',#363,#346,#59,.T.);
#304=EDGE_CURVE('',#364,#363,#60,.T.);
#305=EDGE_CURVE('',#329,#364,#61,.T.);
#306=EDGE_CURVE('',#331,#342,#62,.T.);
#307=EDGE_CURVE('',#365,#341,#63,.T.);
#308=EDGE_CURVE('',#366,#365,#64,.T.);
#309=EDGE_CURVE('',#338,#366,#65,.T.);
#310=EDGE_CURVE('',#367,#337,#66,.T.);
#311=EDGE_CURVE('',#360,#367,#67,.T.);
#312=EDGE_CURVE('',#368,#368,#388,.T.);
#313=EDGE_CURVE('',#357,#361,#68,.T.);
#314=EDGE_CURVE('',#356,#362,#69,.T.);
#315=EDGE_CURVE('',#369,#369,#389,.T.);
#316=EDGE_CURVE('',#354,#364,#70,.T.);
#317=EDGE_CURVE('',#355,#363,#71,.T.);
#318=EDGE_CURVE('',#370,#370,#390,.T.);
#319=EDGE_CURVE('',#371,#371,#391,.T.);
#320=EDGE_CURVE('',#372,#372,#392,.F.);
#321=EDGE_CURVE('',#353,#365,#72,.T.);
#322=EDGE_CURVE('',#352,#366,#73,.T.);
#323=EDGE_CURVE('',#373,#373,#393,.F.);
#324=EDGE_CURVE('',#350,#360,#74,.T.);
#325=EDGE_CURVE('',#351,#367,#75,.T.);
#326=EDGE_CURVE('',#374,#374,#394,.F.);
#327=EDGE_CURVE('',#375,#375,#395,.F.);
#328=VERTEX_POINT('',#704);
#329=VERTEX_POINT('',#705);
#330=VERTEX_POINT('',#707);
#331=VERTEX_POINT('',#709);
#332=VERTEX_POINT('',#713);
#333=VERTEX_POINT('',#714);
#334=VERTEX_POINT('',#716);
#335=VERTEX_POINT('',#718);
#336=VERTEX_POINT('',#722);
#337=VERTEX_POINT('',#723);
#338=VERTEX_POINT('',#725);
#339=VERTEX_POINT('',#727);
#340=VERTEX_POINT('',#731);
#341=VERTEX_POINT('',#732);
#342=VERTEX_POINT('',#734);
#343=VERTEX_POINT('',#736);
#344=VERTEX_POINT('',#740);
#345=VERTEX_POINT('',#741);
#346=VERTEX_POINT('',#743);
#347=VERTEX_POINT('',#745);
#348=VERTEX_POINT('',#749);
#349=VERTEX_POINT('',#750);
#350=VERTEX_POINT('',#752);
#351=VERTEX_POINT('',#754);
#352=VERTEX_POINT('',#757);
#353=VERTEX_POINT('',#759);
#354=VERTEX_POINT('',#763);
#355=VERTEX_POINT('',#765);
#356=VERTEX_POINT('',#768);
#357=VERTEX_POINT('',#770);
#358=VERTEX_POINT('',#775);
#359=VERTEX_POINT('',#776);
#360=VERTEX_POINT('',#781);
#361=VERTEX_POINT('',#784);
#362=VERTEX_POINT('',#786);
#363=VERTEX_POINT('',#789);
#364=VERTEX_POINT('',#791);
#365=VERTEX_POINT('',#795);
#366=VERTEX_POINT('',#797);
#367=VERTEX_POINT('',#800);
#368=VERTEX_POINT('',#806);
#369=VERTEX_POINT('',#812);
#370=VERTEX_POINT('',#818);
#371=VERTEX_POINT('',#821);
#372=VERTEX_POINT('',#824);
#373=VERTEX_POINT('',#830);
#374=VERTEX_POINT('',#836);
#375=VERTEX_POINT('',#839);
#376=CIRCLE('',#514,0.003);
#377=CIRCLE('',#515,0.003);
#378=CIRCLE('',#517,0.003);
#379=CIRCLE('',#518,0.003);
#380=CIRCLE('',#520,0.003);
#381=CIRCLE('',#521,0.003);
#382=CIRCLE('',#523,0.003);
#383=CIRCLE('',#524,0.003);
#384=CIRCLE('',#526,0.003);
#385=CIRCLE('',#527,0.003);
#386=CIRCLE('',#530,0.003);
#387=CIRCLE('',#531,0.003);
#388=CIRCLE('',#536,0.0015);
#389=CIRCLE('',#539,0.0015);
#390=CIRCLE('',#542,0.0015);
#391=CIRCLE('',#544,0.0015);
#392=CIRCLE('',#546,0.0015);
#393=CIRCLE('',#549,0.0015);
#394=CIRCLE('',#552,0.0015);
#395=CIRCLE('',#554,0.0015);
#396=EDGE_LOOP('',(#124,#125,#126,#127));
#397=EDGE_LOOP('',(#128,#129,#130,#131));
#398=EDGE_LOOP('',(#132,#133,#134,#135));
#399=EDGE_LOOP('',(#136,#137,#138,#139));
#400=EDGE_LOOP('',(#140,#141,#142,#143));
#401=EDGE_LOOP('',(#144,#145,#146,#147,#148,#149,#150,#151,#152,#153,#154,
#155,#156,#157,#158,#159,#160,#161,#162,#163));
#402=EDGE_LOOP('',(#164,#165,#166,#167));
#403=EDGE_LOOP('',(#168,#169,#170,#171,#172,#173,#174,#175,#176,#177,#178,
#179,#180,#181,#182,#183,#184,#185,#186,#187));
#404=EDGE_LOOP('',(#188,#189,#190,#191));
#405=EDGE_LOOP('',(#192,#193,#194,#195));
#406=EDGE_LOOP('',(#196));
#407=EDGE_LOOP('',(#197,#198,#199,#200));
#408=EDGE_LOOP('',(#201,#202,#203,#204));
#409=EDGE_LOOP('',(#205));
#410=EDGE_LOOP('',(#206,#207,#208,#209));
#411=EDGE_LOOP('',(#210,#211,#212,#213));
#412=EDGE_LOOP('',(#214));
#413=EDGE_LOOP('',(#215,#216,#217,#218));
#414=EDGE_LOOP('',(#219));
#415=EDGE_LOOP('',(#220,#221,#222,#223));
#416=EDGE_LOOP('',(#224));
#417=EDGE_LOOP('',(#225,#226,#227,#228));
#418=EDGE_LOOP('',(#229,#230,#231,#232));
#419=EDGE_LOOP('',(#233));
#420=EDGE_LOOP('',(#234,#235,#236,#237));
#421=EDGE_LOOP('',(#238,#239,#240,#241));
#422=EDGE_LOOP('',(#242));
#423=EDGE_LOOP('',(#243,#244,#245,#246));
#424=EDGE_LOOP('',(#247));
#425=EDGE_LOOP('',(#248,#249,#250,#251));
#426=EDGE_LOOP('',(#252));
#427=EDGE_LOOP('',(#253));
#428=EDGE_LOOP('',(#254));
#429=EDGE_LOOP('',(#255));
#430=EDGE_LOOP('',(#256));
#431=EDGE_LOOP('',(#257));
#432=EDGE_LOOP('',(#258));
#433=EDGE_LOOP('',(#259));
#434=FACE_BOUND('',#396,.T.);
#435=FACE_BOUND('',#397,.T.);
#436=FACE_BOUND('',#398,.T.);
#437=FACE_BOUND('',#399,.T.);
#438=FACE_BOUND('',#400,.T.);
#439=FACE_BOUND('',#401,.T.);
#440=FACE_BOUND('',#402,.T.);
#441=FACE_BOUND('',#403,.T.);
#442=FACE_BOUND('',#404,.T.);
#443=FACE_BOUND('',#405,.T.);
#444=FACE_BOUND('',#406,.T.);
#445=FACE_BOUND('',#407,.T.);
#446=FACE_BOUND('',#408,.T.);
#447=FACE_BOUND('',#409,.T.);
#448=FACE_BOUND('',#410,.T.);
#449=FACE_BOUND('',#411,.T.);
#450=FACE_BOUND('',#412,.T.);
#451=FACE_BOUND('',#413,.T.);
#452=FACE_BOUND('',#414,.T.);
#453=FACE_BOUND('',#415,.T.);
#454=FACE_BOUND('',#416,.T.);
#455=FACE_BOUND('',#417,.T.);
#456=FACE_BOUND('',#418,.T.);
#457=FACE_BOUND('',#419,.T.);
#458=FACE_BOUND('',#420,.T.);
#459=FACE_BOUND('',#421,.T.);
#460=FACE_BOUND('',#422,.T.);
#461=FACE_BOUND('',#423,.T.);
#462=FACE_BOUND('',#424,.T.);
#463=FACE_BOUND('',#425,.T.);
#464=FACE_BOUND('',#426,.T.);
#465=FACE_BOUND('',#427,.T.);
#466=FACE_BOUND('',#428,.T.);
#467=FACE_BOUND('',#429,.T.);
#468=FACE_BOUND('',#430,.T.);
#469=FACE_BOUND('',#431,.T.);
#470=FACE_BOUND('',#432,.T.);
#471=FACE_BOUND('',#433,.T.);
#472=CYLINDRICAL_SURFACE('',#513,0.003);
#473=CYLINDRICAL_SURFACE('',#516,0.003);
#474=CYLINDRICAL_SURFACE('',#519,0.003);
#475=CYLINDRICAL_SURFACE('',#522,0.003);
#476=CYLINDRICAL_SURFACE('',#525,0.003);
#477=CYLINDRICAL_SURFACE('',#529,0.003);
#478=CYLINDRICAL_SURFACE('',#555,0.0015);
#479=CYLINDRICAL_SURFACE('',#556,0.0015);
#480=CYLINDRICAL_SURFACE('',#557,0.0015);
#481=CYLINDRICAL_SURFACE('',#558,0.0015);
#482=ADVANCED_FACE('',(#434),#472,.T.);
#483=ADVANCED_FACE('',(#435),#473,.T.);
#484=ADVANCED_FACE('',(#436),#474,.T.);
#485=ADVANCED_FACE('',(#437),#475,.T.);
#486=ADVANCED_FACE('',(#438),#476,.T.);
#487=ADVANCED_FACE('',(#439),#12,.F.);
#488=ADVANCED_FACE('',(#440),#477,.T.);
#489=ADVANCED_FACE('',(#441),#13,.T.);
#490=ADVANCED_FACE('',(#442),#14,.F.);
#491=ADVANCED_FACE('',(#443),#15,.T.);
#492=ADVANCED_FACE('',(#444,#445),#16,.F.);
#493=ADVANCED_FACE('',(#446),#17,.F.);
#494=ADVANCED_FACE('',(#447,#448),#18,.F.);
#495=ADVANCED_FACE('',(#449),#19,.F.);
#496=ADVANCED_FACE('',(#450,#451),#20,.F.);
#497=ADVANCED_FACE('',(#452,#453),#21,.F.);
#498=ADVANCED_FACE('',(#454,#455),#22,.F.);
#499=ADVANCED_FACE('',(#456),#23,.F.);
#500=ADVANCED_FACE('',(#457,#458),#24,.F.);
#501=ADVANCED_FACE('',(#459),#25,.F.);
#502=ADVANCED_FACE('',(#460,#461),#26,.F.);
#503=ADVANCED_FACE('',(#462,#463),#27,.F.);
#504=ADVANCED_FACE('',(#464,#465),#478,.T.);
#505=ADVANCED_FACE('',(#466,#467),#479,.T.);
#506=ADVANCED_FACE('',(#468,#469),#480,.T.);
#507=ADVANCED_FACE('',(#470,#471),#481,.T.);
#508=CLOSED_SHELL('',(#482,#483,#484,#485,#486,#487,#488,#489,#490,#491,
#492,#493,#494,#495,#496,#497,#498,#499,#500,#501,#502,#503,#504,#505,#506,
#507));
#509=MANIFOLD_SOLID_BREP($,#508);
#510=SHAPE_DEFINITION_REPRESENTATION(#849,#511);
#511=SHAPE_REPRESENTATION('id2',(#512),#844);
#512=AXIS2_PLACEMENT_3D('',#701,#559,#560);
#513=AXIS2_PLACEMENT_3D('',#702,#561,#562);
#514=AXIS2_PLACEMENT_3D('',#703,#563,#564);
#515=AXIS2_PLACEMENT_3D('',#708,#566,#567);
#516=AXIS2_PLACEMENT_3D('',#711,#569,#570);
#517=AXIS2_PLACEMENT_3D('',#715,#572,#573);
#518=AXIS2_PLACEMENT_3D('',#719,#575,#576);
#519=AXIS2_PLACEMENT_3D('',#720,#577,#578);
#520=AXIS2_PLACEMENT_3D('',#721,#579,#580);
#521=AXIS2_PLACEMENT_3D('',#726,#582,#583);
#522=AXIS2_PLACEMENT_3D('',#729,#585,#586);
#523=AXIS2_PLACEMENT_3D('',#730,#587,#588);
#524=AXIS2_PLACEMENT_3D('',#735,#590,#591);
#525=AXIS2_PLACEMENT_3D('',#738,#593,#594);
#526=AXIS2_PLACEMENT_3D('',#742,#596,#597);
#527=AXIS2_PLACEMENT_3D('',#746,#599,#600);
#528=AXIS2_PLACEMENT_3D('',#747,#601,#602);
#529=AXIS2_PLACEMENT_3D('',#773,#618,#619);
#530=AXIS2_PLACEMENT_3D('',#777,#621,#622);
#531=AXIS2_PLACEMENT_3D('',#778,#623,#624);
#532=AXIS2_PLACEMENT_3D('',#779,#625,#626);
#533=AXIS2_PLACEMENT_3D('',#802,#641,#642);
#534=AXIS2_PLACEMENT_3D('',#803,#643,#644);
#535=AXIS2_PLACEMENT_3D('',#804,#645,#646);
#536=AXIS2_PLACEMENT_3D('',#805,#647,#648);
#537=AXIS2_PLACEMENT_3D('',#808,#650,#651);
#538=AXIS2_PLACEMENT_3D('',#810,#653,#654);
#539=AXIS2_PLACEMENT_3D('',#811,#655,#656);
#540=AXIS2_PLACEMENT_3D('',#813,#657,#658);
#541=AXIS2_PLACEMENT_3D('',#816,#661,#662);
#542=AXIS2_PLACEMENT_3D('',#817,#663,#664);
#543=AXIS2_PLACEMENT_3D('',#819,#665,#666);
#544=AXIS2_PLACEMENT_3D('',#820,#667,#668);
#545=AXIS2_PLACEMENT_3D('',#822,#669,#670);
#546=AXIS2_PLACEMENT_3D('',#823,#671,#672);
#547=AXIS2_PLACEMENT_3D('',#826,#674,#675);
#548=AXIS2_PLACEMENT_3D('',#828,#677,#678);
#549=AXIS2_PLACEMENT_3D('',#829,#679,#680);
#550=AXIS2_PLACEMENT_3D('',#831,#681,#682);
#551=AXIS2_PLACEMENT_3D('',#834,#685,#686);
#552=AXIS2_PLACEMENT_3D('',#835,#687,#688);
#553=AXIS2_PLACEMENT_3D('',#837,#689,#690);
#554=AXIS2_PLACEMENT_3D('',#838,#691,#692);
#555=AXIS2_PLACEMENT_3D('',#840,#693,#694);
#556=AXIS2_PLACEMENT_3D('',#841,#695,#696);
#557=AXIS2_PLACEMENT_3D('',#842,#697,#698);
#558=AXIS2_PLACEMENT_3D('',#843,#699,#700);
#559=DIRECTION('',(0.,0.,1.));
#560=DIRECTION('',(1.,0.,0.));
#561=DIRECTION('',(-1.,0.,0.));
#562=DIRECTION('',(0.,-1.,0.));
#563=DIRECTION('',(1.,2.31296463463575E-15,0.));
#564=DIRECTION('',(-2.31296463463575E-15,1.,0.));
#565=DIRECTION('',(-1.,0.,0.));
#566=DIRECTION('',(-1.,0.,0.));
#567=DIRECTION('',(0.,-1.,0.));
#568=DIRECTION('',(-1.,0.,0.));
#569=DIRECTION('',(-1.,0.,0.));
#570=DIRECTION('',(0.,-1.,0.));
#571=DIRECTION('',(-1.,0.,0.));
#572=DIRECTION('',(-1.,2.31296463463575E-15,0.));
#573=DIRECTION('',(-2.31296463463575E-15,-1.,0.));
#574=DIRECTION('',(-1.,0.,0.));
#575=DIRECTION('',(-1.,0.,0.));
#576=DIRECTION('',(0.,-1.,0.));
#577=DIRECTION('',(-1.,0.,0.));
#578=DIRECTION('',(0.,-1.,0.));
#579=DIRECTION('',(1.,0.,0.));
#580=DIRECTION('',(0.,1.,0.));
#581=DIRECTION('',(-1.,0.,0.));
#582=DIRECTION('',(-1.,1.15648231731787E-15,0.));
#583=DIRECTION('',(-1.15648231731787E-15,-1.,0.));
#584=DIRECTION('',(-1.,0.,0.));
#585=DIRECTION('',(-1.,0.,0.));
#586=DIRECTION('',(0.,-1.,0.));
#587=DIRECTION('',(1.,-2.31296463463575E-15,0.));
#588=DIRECTION('',(2.31296463463575E-15,1.,0.));
#589=DIRECTION('',(-1.,0.,0.));
#590=DIRECTION('',(1.,0.,0.));
#591=DIRECTION('',(0.,1.,0.));
#592=DIRECTION('',(-1.,0.,0.));
#593=DIRECTION('',(-1.,0.,0.));
#594=DIRECTION('',(0.,-1.,0.));
#595=DIRECTION('',(-1.,0.,0.));
#596=DIRECTION('',(-1.,-1.15648231731787E-15,0.));
#597=DIRECTION('',(1.15648231731787E-15,-1.,0.));
#598=DIRECTION('',(-1.,0.,0.));
#599=DIRECTION('',(1.,0.,0.));
#600=DIRECTION('',(0.,1.,0.));
#601=DIRECTION('',(0.,0.,1.));
#602=DIRECTION('',(0.,-1.,0.));
#603=DIRECTION('',(-1.,0.,0.));
#604=DIRECTION('',(2.31296463463575E-15,-1.,0.));
#605=DIRECTION('',(1.,0.,0.));
#606=DIRECTION('',(0.,1.,0.));
#607=DIRECTION('',(-1.15648231731787E-15,-1.,0.));
#608=DIRECTION('',(1.,-2.77555756156289E-16,0.));
#609=DIRECTION('',(2.31296463463575E-15,1.,0.));
#610=DIRECTION('',(0.,1.,0.));
#611=DIRECTION('',(-2.31296463463575E-15,1.,0.));
#612=DIRECTION('',(-1.,-2.77555756156289E-16,0.));
#613=DIRECTION('',(1.15648231731787E-15,-1.,0.));
#614=DIRECTION('',(0.,1.,0.));
#615=DIRECTION('',(-1.,0.,0.));
#616=DIRECTION('',(-2.31296463463575E-15,-1.,0.));
#617=DIRECTION('',(0.,1.,0.));
#618=DIRECTION('',(-1.,0.,0.));
#619=DIRECTION('',(0.,-1.,0.));
#620=DIRECTION('',(-1.,0.,0.));
#621=DIRECTION('',(-1.,-2.31296463463575E-15,0.));
#622=DIRECTION('',(2.31296463463575E-15,-1.,0.));
#623=DIRECTION('',(1.,0.,0.));
#624=DIRECTION('',(0.,1.,0.));
#625=DIRECTION('',(0.,0.,1.));
#626=DIRECTION('',(0.,-1.,0.));
#627=DIRECTION('',(2.31296463463575E-15,-1.,0.));
#628=DIRECTION('',(0.,1.,0.));
#629=DIRECTION('',(-2.31296463463575E-15,-1.,0.));
#630=DIRECTION('',(-1.,0.,0.));
#631=DIRECTION('',(0.,1.,0.));
#632=DIRECTION('',(1.15648231731787E-15,-1.,0.));
#633=DIRECTION('',(-1.,-2.77555756156289E-16,0.));
#634=DIRECTION('',(-2.31296463463575E-15,1.,0.));
#635=DIRECTION('',(0.,1.,0.));
#636=DIRECTION('',(2.31296463463575E-15,1.,0.));
#637=DIRECTION('',(1.,-2.77555756156289E-16,0.));
#638=DIRECTION('',(-1.15648231731787E-15,-1.,0.));
#639=DIRECTION('',(0.,1.,0.));
#640=DIRECTION('',(1.,0.,0.));
#641=DIRECTION('',(-1.,0.,0.));
#642=DIRECTION('',(0.,-1.,0.));
#643=DIRECTION('',(-1.,0.,0.));
#644=DIRECTION('',(0.,-1.,0.));
#645=DIRECTION('',(-1.,2.31296463463575E-15,0.));
#646=DIRECTION('',(-2.31296463463575E-15,-1.,0.));
#647=DIRECTION('',(-1.,2.31296463463575E-15,0.));
#648=DIRECTION('',(-2.31296463463575E-15,-1.,0.));
#649=DIRECTION('',(0.,0.,1.));
#650=DIRECTION('',(0.,1.,0.));
#651=DIRECTION('',(-1.,0.,0.));
#652=DIRECTION('',(0.,0.,1.));
#653=DIRECTION('',(1.,0.,0.));
#654=DIRECTION('',(0.,1.,0.));
#655=DIRECTION('',(1.,0.,0.));
#656=DIRECTION('',(0.,1.,0.));
#657=DIRECTION('',(-2.77555756156289E-16,1.,0.));
#658=DIRECTION('',(-1.,-2.77555756156289E-16,0.));
#659=DIRECTION('',(0.,0.,1.));
#660=DIRECTION('',(0.,0.,1.));
#661=DIRECTION('',(1.,2.31296463463575E-15,0.));
#662=DIRECTION('',(-2.31296463463575E-15,1.,0.));
#663=DIRECTION('',(1.,2.31296463463575E-15,0.));
#664=DIRECTION('',(-2.31296463463575E-15,1.,0.));
#665=DIRECTION('',(-1.,-1.15648231731787E-15,0.));
#666=DIRECTION('',(1.15648231731787E-15,-1.,0.));
#667=DIRECTION('',(-1.,-1.15648231731787E-15,0.));
#668=DIRECTION('',(1.15648231731787E-15,-1.,0.));
#669=DIRECTION('',(1.,-2.31296463463575E-15,0.));
#670=DIRECTION('',(2.31296463463575E-15,1.,0.));
#671=DIRECTION('',(1.,-2.31296463463575E-15,0.));
#672=DIRECTION('',(2.31296463463575E-15,1.,0.));
#673=DIRECTION('',(0.,0.,1.));
#674=DIRECTION('',(-2.77555756156289E-16,-1.,0.));
#675=DIRECTION('',(1.,-2.77555756156289E-16,0.));
#676=DIRECTION('',(0.,0.,1.));
#677=DIRECTION('',(-1.,1.15648231731787E-15,0.));
#678=DIRECTION('',(-1.15648231731787E-15,-1.,0.));
#679=DIRECTION('',(-1.,1.15648231731787E-15,0.));
#680=DIRECTION('',(-1.15648231731787E-15,-1.,0.));
#681=DIRECTION('',(0.,-1.,0.));
#682=DIRECTION('',(1.,0.,0.));
#683=DIRECTION('',(0.,0.,1.));
#684=DIRECTION('',(0.,0.,1.));
#685=DIRECTION('',(-1.,-2.31296463463575E-15,0.));
#686=DIRECTION('',(2.31296463463575E-15,-1.,0.));
#687=DIRECTION('',(-1.,-2.31296463463575E-15,0.));
#688=DIRECTION('',(2.31296463463575E-15,-1.,0.));
#689=DIRECTION('',(1.,0.,0.));
#690=DIRECTION('',(0.,1.,0.));
#691=DIRECTION('',(1.,0.,0.));
#692=DIRECTION('',(0.,1.,0.));
#693=DIRECTION('',(-1.,0.,0.));
#694=DIRECTION('',(0.,-1.,0.));
#695=DIRECTION('',(-1.,0.,0.));
#696=DIRECTION('',(0.,-1.,0.));
#697=DIRECTION('',(-1.,0.,0.));
#698=DIRECTION('',(0.,-1.,0.));
#699=DIRECTION('',(-1.,0.,0.));
#700=DIRECTION('',(0.,-1.,0.));
#701=CARTESIAN_POINT('',(0.,0.,0.));
#702=CARTESIAN_POINT('',(0.096,-0.0455,0.003));
#703=CARTESIAN_POINT('',(0.076,-0.0455,0.003));
#704=CARTESIAN_POINT('',(0.076,-0.0455,1.7347234759768E-18));
#705=CARTESIAN_POINT('',(0.076,-0.0426715728752538,0.002));
#706=CARTESIAN_POINT('',(0.096,-0.0455,0.));
#707=CARTESIAN_POINT('',(0.096,-0.0455,0.));
#708=CARTESIAN_POINT('',(0.096,-0.0455,0.003));
#709=CARTESIAN_POINT('',(0.096,-0.0426715728752538,0.002));
#710=CARTESIAN_POINT('',(0.096,-0.0426715728752538,0.002));
#711=CARTESIAN_POINT('',(0.096,-0.0455,0.003));
#712=CARTESIAN_POINT('',(0.096,-0.0455,0.));
#713=CARTESIAN_POINT('',(-0.076,-0.0455,1.7347234759768E-18));
#714=CARTESIAN_POINT('',(-0.096,-0.0455,0.));
#715=CARTESIAN_POINT('',(-0.076,-0.0455,0.003));
#716=CARTESIAN_POINT('',(-0.076,-0.0426715728752538,0.002));
#717=CARTESIAN_POINT('',(0.096,-0.0426715728752538,0.002));
#718=CARTESIAN_POINT('',(-0.096,-0.0426715728752538,0.002));
#719=CARTESIAN_POINT('',(-0.096,-0.0455,0.003));
#720=CARTESIAN_POINT('',(0.096,0.0455,0.003));
#721=CARTESIAN_POINT('',(-0.051,0.0455,0.003));
#722=CARTESIAN_POINT('',(-0.051,0.0455,1.7347234759768E-18));
#723=CARTESIAN_POINT('',(-0.051,0.0426715728752538,0.002));
#724=CARTESIAN_POINT('',(0.096,0.0426715728752538,0.002));
#725=CARTESIAN_POINT('',(0.051,0.0426715728752538,0.002));
#726=CARTESIAN_POINT('',(0.051,0.0455,0.003));
#727=CARTESIAN_POINT('',(0.051,0.0455,1.7347234759768E-18));
#728=CARTESIAN_POINT('',(0.096,0.0455,1.7347234759768E-18));
#729=CARTESIAN_POINT('',(0.096,0.0455,0.003));
#730=CARTESIAN_POINT('',(0.076,0.0455,0.003));
#731=CARTESIAN_POINT('',(0.076,0.0455,1.7347234759768E-18));
#732=CARTESIAN_POINT('',(0.076,0.0426715728752538,0.002));
#733=CARTESIAN_POINT('',(0.096,0.0426715728752538,0.002));
#734=CARTESIAN_POINT('',(0.096,0.0426715728752538,0.002));
#735=CARTESIAN_POINT('',(0.096,0.0455,0.003));
#736=CARTESIAN_POINT('',(0.096,0.0455,1.7347234759768E-18));
#737=CARTESIAN_POINT('',(0.096,0.0455,1.7347234759768E-18));
#738=CARTESIAN_POINT('',(0.096,-0.0455,0.003));
#739=CARTESIAN_POINT('',(0.096,-0.0455,0.));
#740=CARTESIAN_POINT('',(0.051,-0.0455,1.7347234759768E-18));
#741=CARTESIAN_POINT('',(-0.051,-0.0455,1.7347234759768E-18));
#742=CARTESIAN_POINT('',(0.051,-0.0455,0.003));
#743=CARTESIAN_POINT('',(0.051,-0.0426715728752538,0.002));
#744=CARTESIAN_POINT('',(0.096,-0.0426715728752538,0.002));
#745=CARTESIAN_POINT('',(-0.051,-0.0426715728752538,0.002));
#746=CARTESIAN_POINT('',(-0.051,-0.0455,0.003));
#747=CARTESIAN_POINT('',(0.096,-0.0455,0.));
#748=CARTESIAN_POINT('',(0.096,0.0455,1.7347234759768E-18));
#749=CARTESIAN_POINT('',(-0.076,0.0455,1.7347234759768E-18));
#750=CARTESIAN_POINT('',(-0.096,0.0455,1.7347234759768E-18));
#751=CARTESIAN_POINT('',(-0.076,-0.0455,0.));
#752=CARTESIAN_POINT('',(-0.076,0.0425,0.));
#753=CARTESIAN_POINT('',(0.096,0.0425,0.));
#754=CARTESIAN_POINT('',(-0.051,0.0425,0.));
#755=CARTESIAN_POINT('',(-0.051,-0.0455,0.));
#756=CARTESIAN_POINT('',(0.051,-0.0455,0.));
#757=CARTESIAN_POINT('',(0.051,0.0425,0.));
#758=CARTESIAN_POINT('',(0.096,0.0425,0.));
#759=CARTESIAN_POINT('',(0.076,0.0425,0.));
#760=CARTESIAN_POINT('',(0.076,-0.0455,0.));
#761=CARTESIAN_POINT('',(0.096,-0.0455,0.));
#762=CARTESIAN_POINT('',(0.076,-0.0455,0.));
#763=CARTESIAN_POINT('',(0.076,-0.0425,0.));
#764=CARTESIAN_POINT('',(0.096,-0.0425,0.));
#765=CARTESIAN_POINT('',(0.051,-0.0425,0.));
#766=CARTESIAN_POINT('',(0.051,-0.0455,0.));
#767=CARTESIAN_POINT('',(-0.051,-0.0455,0.));
#768=CARTESIAN_POINT('',(-0.051,-0.0425,0.));
#769=CARTESIAN_POINT('',(0.096,-0.0425,0.));
#770=CARTESIAN_POINT('',(-0.076,-0.0425,0.));
#771=CARTESIAN_POINT('',(-0.076,-0.0455,0.));
#772=CARTESIAN_POINT('',(-0.096,-0.0455,0.));
#773=CARTESIAN_POINT('',(0.096,0.0455,0.003));
#774=CARTESIAN_POINT('',(0.096,0.0426715728752538,0.002));
#775=CARTESIAN_POINT('',(-0.076,0.0426715728752538,0.002));
#776=CARTESIAN_POINT('',(-0.096,0.0426715728752538,0.002));
#777=CARTESIAN_POINT('',(-0.076,0.0455,0.003));
#778=CARTESIAN_POINT('',(-0.096,0.0455,0.003));
#779=CARTESIAN_POINT('',(0.096,-0.0426715728752538,0.002));
#780=CARTESIAN_POINT('',(-0.076,-0.0426715728752542,0.002));
#781=CARTESIAN_POINT('',(-0.076,0.0425,0.002));
#782=CARTESIAN_POINT('',(-0.096,-0.0426715728752538,0.002));
#783=CARTESIAN_POINT('',(-0.076,-0.0426715728752535,0.002));
#784=CARTESIAN_POINT('',(-0.076,-0.0425,0.002));
#785=CARTESIAN_POINT('',(0.096,-0.0425,0.002));
#786=CARTESIAN_POINT('',(-0.051,-0.0425,0.002));
#787=CARTESIAN_POINT('',(-0.051,-0.0426715728752538,0.002));
#788=CARTESIAN_POINT('',(0.051,-0.0426715728752539,0.002));
#789=CARTESIAN_POINT('',(0.051,-0.0425,0.002));
#790=CARTESIAN_POINT('',(0.096,-0.0425,0.002));
#791=CARTESIAN_POINT('',(0.076,-0.0425,0.002));
#792=CARTESIAN_POINT('',(0.076,-0.0426715728752539,0.002));
#793=CARTESIAN_POINT('',(0.096,-0.0426715728752538,0.002));
#794=CARTESIAN_POINT('',(0.076,-0.0426715728752537,0.002));
#795=CARTESIAN_POINT('',(0.076,0.0425,0.002));
#796=CARTESIAN_POINT('',(0.096,0.0425,0.002));
#797=CARTESIAN_POINT('',(0.051,0.0425,0.002));
#798=CARTESIAN_POINT('',(0.051,-0.0426715728752537,0.002));
#799=CARTESIAN_POINT('',(-0.051,-0.0426715728752538,0.002));
#800=CARTESIAN_POINT('',(-0.051,0.0425,0.002));
#801=CARTESIAN_POINT('',(0.096,0.0425,0.002));
#802=CARTESIAN_POINT('',(0.096,-0.0455,0.003));
#803=CARTESIAN_POINT('',(-0.096,-0.0455,0.003));
#804=CARTESIAN_POINT('',(-0.076,-0.0425,-0.003));
#805=CARTESIAN_POINT('',(-0.076,-0.0455,0.003));
#806=CARTESIAN_POINT('',(-0.076,-0.047,0.003));
#807=CARTESIAN_POINT('',(-0.076,-0.0425,-0.003));
#808=CARTESIAN_POINT('',(-0.076,-0.0425,-0.003));
#809=CARTESIAN_POINT('',(-0.051,-0.0425,-0.003));
#810=CARTESIAN_POINT('',(-0.051,-0.0425,-0.003));
#811=CARTESIAN_POINT('',(-0.051,-0.0455,0.003));
#812=CARTESIAN_POINT('',(-0.051,-0.044,0.003));
#813=CARTESIAN_POINT('',(0.076,-0.0425,-0.003));
#814=CARTESIAN_POINT('',(0.076,-0.0425,-0.003));
#815=CARTESIAN_POINT('',(0.051,-0.0425,-0.003));
#816=CARTESIAN_POINT('',(0.076,-0.0425,-0.003));
#817=CARTESIAN_POINT('',(0.076,-0.0455,0.003));
#818=CARTESIAN_POINT('',(0.076,-0.044,0.003));
#819=CARTESIAN_POINT('',(0.051,-0.0425,-0.003));
#820=CARTESIAN_POINT('',(0.051,-0.0455,0.003));
#821=CARTESIAN_POINT('',(0.051,-0.047,0.003));
#822=CARTESIAN_POINT('',(0.076,0.0425,-0.003));
#823=CARTESIAN_POINT('',(0.076,0.0455,0.003));
#824=CARTESIAN_POINT('',(0.076,0.047,0.003));
#825=CARTESIAN_POINT('',(0.076,0.0425,-0.003));
#826=CARTESIAN_POINT('',(0.076,0.0425,-0.003));
#827=CARTESIAN_POINT('',(0.051,0.0425,-0.003));
#828=CARTESIAN_POINT('',(0.051,0.0425,-0.003));
#829=CARTESIAN_POINT('',(0.051,0.0455,0.003));
#830=CARTESIAN_POINT('',(0.051,0.044,0.003));
#831=CARTESIAN_POINT('',(-0.076,0.0425,-0.003));
#832=CARTESIAN_POINT('',(-0.076,0.0425,-0.003));
#833=CARTESIAN_POINT('',(-0.051,0.0425,-0.003));
#834=CARTESIAN_POINT('',(-0.076,0.0425,-0.003));
#835=CARTESIAN_POINT('',(-0.076,0.0455,0.003));
#836=CARTESIAN_POINT('',(-0.076,0.044,0.003));
#837=CARTESIAN_POINT('',(-0.051,0.0425,-0.003));
#838=CARTESIAN_POINT('',(-0.051,0.0455,0.003));
#839=CARTESIAN_POINT('',(-0.051,0.047,0.003));
#840=CARTESIAN_POINT('',(0.095,0.0455,0.003));
#841=CARTESIAN_POINT('',(0.095,0.0455,0.003));
#842=CARTESIAN_POINT('',(0.095,-0.0455,0.003));
#843=CARTESIAN_POINT('',(0.095,-0.0455,0.003));
#844=(
GEOMETRIC_REPRESENTATION_CONTEXT(3)
GLOBAL_UNCERTAINTY_ASSIGNED_CONTEXT((#845))
GLOBAL_UNIT_ASSIGNED_CONTEXT((#848,#847,#846))
REPRESENTATION_CONTEXT('id2','TOP_LEVEL_ASSEMBLY_PART')
);
#845=UNCERTAINTY_MEASURE_WITH_UNIT(LENGTH_MEASURE(1.E-8),#848,
'DISTANCE_ACCURACY_VALUE','Maximum Tolerance applied to model');
#846=(
NAMED_UNIT(*)
SI_UNIT($,.STERADIAN.)
SOLID_ANGLE_UNIT()
);
#847=(
NAMED_UNIT(*)
PLANE_ANGLE_UNIT()
SI_UNIT($,.RADIAN.)
);
#848=(
LENGTH_UNIT()
NAMED_UNIT(*)
SI_UNIT($,.METRE.)
);
#849=PRODUCT_DEFINITION_SHAPE('','',#850);
#850=PRODUCT_DEFINITION('','',#852,#851);
#851=PRODUCT_DEFINITION_CONTEXT('',#858,'design');
#852=PRODUCT_DEFINITION_FORMATION_WITH_SPECIFIED_SOURCE('','',#854,
 .NOT_KNOWN.);
#853=PRODUCT_RELATED_PRODUCT_CATEGORY('','',(#854));
#854=PRODUCT('id2','id2','id2',(#856));
#855=PRODUCT_CATEGORY('','');
#856=PRODUCT_CONTEXT('',#858,'mechanical');
#857=APPLICATION_PROTOCOL_DEFINITION('international standard',
'ap242_managed_model_based_3d_engineering',2020,#858);
#858=APPLICATION_CONTEXT('managed model based 3d engineering');
ENDSEC;
END-ISO-10303-21;
